<?xml version="1.0" encoding="utf-8"?>
<!-- Generator: Adobe Illustrator 14.0.0, SVG Export Plug-In . SVG Version: 6.00 Build 43363)  -->
<!DOCTYPE svg PUBLIC "-//W3C//DTD SVG 1.1//EN" "http://www.w3.org/Graphics/SVG/1.1/DTD/svg11.dtd">
<svg version="1.1" id="Layer_1" xmlns="http://www.w3.org/2000/svg" xmlns:xlink="http://www.w3.org/1999/xlink" x="0px" y="0px"
	 width="543.019px" height="281.833px" viewBox="0 0 543.019 281.833" style="enable-background:new 0 0 543.019 281.833;"
	 xml:space="preserve">
<style type="text/css">
<![CDATA[
	.st0{fill:#939598;}
	.st1{fill:#FFFFFF;}
]]>
</style>
<path class="st1" d="M73.254,195.612v-74.165h4.173v69.992h28.738v4.173H73.254z"/>
<path class="st1" d="M177.134,121.447h4.589l38.102,65.96v-65.96h4.173v74.165h-4.173l-38.519-66.611v66.611h-4.172V121.447z"/>
<path class="st1" d="M297.098,183.794l3.152,2.825c-7.231,6.585-15.744,9.873-25.542,9.873c-10.507,0-19.462-3.7-26.861-11.102
	c-7.401-7.401-11.102-16.354-11.102-26.861c0-10.477,3.7-19.422,11.102-26.84c7.399-7.417,16.354-11.126,26.861-11.126
	c9.798,0,18.311,3.293,25.542,9.874l-3.152,2.876c-6.367-5.657-13.829-8.485-22.39-8.485c-9.302,0-17.243,3.293-23.826,9.874
	c-6.582,6.585-9.872,14.526-9.872,23.827c0,9.334,3.29,17.292,9.872,23.872c6.583,6.582,14.524,9.874,23.826,9.874
	C283.269,192.275,290.73,189.447,297.098,183.794z"/>
<path class="st1" d="M316.011,148.833v46.779h-4.173v-74.165h4.173v23.212h31.057v-23.212h4.171v74.165h-4.171v-46.779H316.011z"/>
<path class="st1" d="M479.642,121.54h0.324c12.206,0,21.661,3.368,28.368,10.105c7.416,7.445,11.124,16.407,11.124,26.884
	c0,10.507-3.708,19.468-11.124,26.885c-6.707,6.737-16.162,10.105-28.368,10.105h-0.324v0.093h-4.173v-74.165h4.173V121.54z
	 M479.642,125.805v65.499h0.324c11,0,19.453-2.969,25.354-8.902c6.583-6.58,9.873-14.538,9.873-23.872
	c0-9.301-3.29-17.258-9.873-23.871c-5.901-5.905-14.354-8.854-25.354-8.854H479.642z"/>
<path class="st0" d="M54.711,152.041c-3.059-3.368-6.318-5.409-9.78-6.121c3.925-3.305,5.888-6.873,5.888-10.706
	c0-3.801-1.353-7.045-4.057-9.733c-2.705-2.688-5.957-4.033-9.757-4.033H23.84v22.84h4.172v-18.671h8.993
	c2.781,0,5.113,0.904,6.998,2.712c1.884,1.81,2.828,4.105,2.828,6.886c0,2.781-0.944,5.037-2.828,6.766
	c-1.3,1.204-2.824,1.98-4.553,2.364v4.86h-0.058c4.652,0.553,8.716,2.537,12.168,5.99c4.108,4.108,6.165,9.068,6.165,14.877
	c0,5.81-2.057,10.83-6.165,15.067c-3.741,3.893-8.191,6.009-13.351,6.349v-0.048H28.012v-42.235H23.84v46.408h14.37v-0.044
	c6.397-0.096,11.896-2.521,16.501-7.281c4.944-5.129,7.417-11.202,7.417-18.216C62.128,163.026,59.655,157.014,54.711,152.041z"/>
<g>
	<polygon class="st0" points="135.784,144.287 140.281,131.922 144.962,144.287 149.207,144.287 140.281,119.731 131.34,144.287 	
		"/>
	<polygon class="st0" points="129.552,149.204 112.654,195.612 117.104,195.612 133.98,149.204 	"/>
	<polygon class="st0" points="150.993,149.204 146.778,149.204 163.457,195.612 167.862,195.612 	"/>
</g>
<g>
	<polygon class="st0" points="383.64,144.287 388.136,131.922 392.816,144.287 397.062,144.287 388.136,119.731 379.194,144.287 	
		"/>
	<polygon class="st0" points="377.406,149.204 360.51,195.612 364.959,195.612 381.836,149.204 	"/>
	<polygon class="st0" points="398.848,149.204 394.633,149.204 411.312,195.612 415.717,195.612 	"/>
</g>
<g>
	<rect x="424.988" y="170.188" class="st0" width="4.173" height="25.425"/>
	<path class="st0" d="M458.874,162.794c4.727-4.729,7.092-10.444,7.092-17.15c0-6.677-2.365-12.377-7.092-17.106
		c-3.956-3.953-8.762-6.317-14.416-7.09h-19.47v43.823h4.173v-39.605h12.608c5.498,0,10.203,1.947,14.114,5.841
		c3.909,3.893,5.863,8.604,5.863,14.138s-1.954,10.25-5.863,14.158c-3.599,3.601-7.878,5.521-12.82,5.806v4.301l16.505,25.704h5.145
		l-17.104-26.376C451.843,168.215,455.598,166.071,458.874,162.794z"/>
</g>
<path class="st1" d="M28.012,20.331h0.324c12.206,0,21.664,3.369,28.37,10.105c7.417,7.449,11.125,16.411,11.125,26.885
	c0,10.51-3.708,19.471-11.125,26.888C50,90.947,40.542,94.312,28.336,94.312h-0.324v0.096H23.84V20.239h4.172V20.331z
	 M28.012,24.596v65.499h0.324c11.003,0,19.456-2.965,25.357-8.901c6.58-6.582,9.873-14.538,9.873-23.872
	c0-9.302-3.293-17.259-9.873-23.872c-5.901-5.901-14.354-8.854-25.357-8.854H28.012z"/>
<path class="st1" d="M136.946,20.239h4.589l38.103,65.963V20.239h4.172v74.168h-4.172l-38.519-66.61v66.61h-4.173V20.239z"/>
<path class="st1" d="M254.73,20.239v4.172h-32.91v19.044h32.91v4.173h-32.91v42.606h32.91v4.173h-37.083V20.239H254.73z"/>
<path class="st1" d="M267.477,94.407V20.239h4.172v69.995h28.741v4.173H267.477z"/>
<g>
	<polygon class="st0" points="95.596,43.083 100.093,30.717 104.772,43.083 109.019,43.083 100.093,18.526 91.15,43.083 	"/>
	<polygon class="st0" points="89.362,47.999 72.468,94.403 76.917,94.403 93.792,47.999 	"/>
	<polygon class="st0" points="110.807,47.999 106.59,47.999 123.269,94.403 127.673,94.403 	"/>
</g>
<g>
	<rect x="198.642" y="20.239" class="st0" width="4.172" height="22.844"/>
	<rect x="198.642" y="47.999" class="st0" width="4.172" height="46.408"/>
</g>
<g>
	<path class="st0" d="M31.073,261.233h-6.084c-0.164,0-0.245-0.099-0.245-0.295v-1.254c0-0.196,0.081-0.295,0.245-0.295h1.432
		v-13.961h-1.432c-0.164,0-0.245-0.099-0.245-0.295v-1.254c0-0.196,0.081-0.295,0.245-0.295h6.065c1.256,0,2.232,0.435,2.93,1.303
		c0.697,0.869,1.045,2.008,1.045,3.417c0,1.655-0.559,2.892-1.676,3.711c1.607,0.606,2.411,2,2.411,4.179
		c0,1.541-0.393,2.766-1.178,3.675S32.631,261.233,31.073,261.233z M28.06,251.327h2.882c0.653-0.016,1.222-0.262,1.705-0.737
		c0.483-0.475,0.726-1.22,0.726-2.236c0-1.016-0.255-1.758-0.763-2.225c-0.509-0.467-1.134-0.7-1.875-0.7H28.06V251.327z
		 M28.06,259.39h2.882c0.992,0,1.768-0.274,2.327-0.823c0.559-0.549,0.838-1.396,0.838-2.544c0-2.048-1.017-3.072-3.052-3.072H28.06
		V259.39z"/>
	<path class="st0" d="M42.057,261.233h-4.521c-0.164,0-0.245-0.099-0.245-0.295v-1.254c0-0.196,0.081-0.295,0.245-0.295h1.432
		v-13.961h-1.432c-0.164,0-0.245-0.099-0.245-0.295v-1.254c0-0.196,0.081-0.295,0.245-0.295h4.521c0.163,0,0.245,0.099,0.245,0.295
		v1.254c0,0.196-0.082,0.295-0.245,0.295h-1.45v13.961h1.45c0.163,0,0.245,0.099,0.245,0.295v1.254
		C42.302,261.135,42.22,261.233,42.057,261.233z"/>
	<path class="st0" d="M55.036,261.233H44.732c-0.164,0-0.245-0.099-0.245-0.295v-1.254c0-0.196,0.081-0.295,0.245-0.295h1.432
		v-13.961h-1.432c-0.164,0-0.245-0.099-0.245-0.295v-1.254c0-0.196,0.081-0.295,0.245-0.295h4.502c0.163,0,0.245,0.106,0.245,0.319
		v1.204c0,0.214-0.082,0.32-0.245,0.32h-1.432v13.961h5.99v-2.408c0-0.197,0.082-0.295,0.245-0.295h1.018
		c0.15,0,0.226,0.098,0.226,0.295v3.933C55.281,261.127,55.199,261.233,55.036,261.233z"/>
	<path class="st0" d="M61.61,261.233H57.09c-0.164,0-0.245-0.099-0.245-0.295v-1.254c0-0.196,0.081-0.295,0.245-0.295h1.432v-13.961
		H57.09c-0.164,0-0.245-0.099-0.245-0.295v-1.254c0-0.196,0.081-0.295,0.245-0.295h4.521c0.163,0,0.245,0.099,0.245,0.295v1.254
		c0,0.196-0.082,0.295-0.245,0.295h-1.45v13.961h1.45c0.163,0,0.245,0.099,0.245,0.295v1.254
		C61.855,261.135,61.773,261.233,61.61,261.233z"/>
	<path class="st0" d="M75.758,261.233h-1.017c-0.239,0-0.428-0.062-0.565-0.185c-0.139-0.123-0.271-0.315-0.396-0.577l-5.444-11.11
		l-0.941-2.064h-0.038v12.093h1.45c0.163,0,0.245,0.099,0.245,0.295v1.254c0,0.196-0.082,0.295-0.245,0.295h-4.521
		c-0.164,0-0.245-0.099-0.245-0.295v-1.254c0-0.196,0.081-0.295,0.245-0.295h1.432v-13.961h-1.432c-0.164,0-0.245-0.099-0.245-0.295
		v-1.254c0-0.196,0.081-0.295,0.245-0.295h2.637c0.364,0,0.685,0.278,0.961,0.836l5.369,10.963l1.073,2.384h0.038v-12.339h-1.45
		c-0.151,0-0.227-0.099-0.227-0.295v-1.254c0-0.196,0.075-0.295,0.227-0.295h4.54c0.15,0,0.226,0.099,0.226,0.295v1.254
		c0,0.196-0.075,0.295-0.226,0.295h-1.451v15.51C76.003,261.135,75.921,261.233,75.758,261.233z"/>
	<path class="st0" d="M91.017,261.233h-0.998c-0.163,0-0.245-0.099-0.245-0.295l0.019-1.696c-1.104,1.442-2.577,2.163-4.417,2.163
		s-3.375-0.836-4.606-2.507c-1.23-1.672-1.846-3.867-1.846-6.588c0-1.818,0.311-3.416,0.933-4.793
		c0.621-1.376,1.413-2.4,2.373-3.072c0.961-0.672,2-1.008,3.118-1.008c1.922,0,3.303,0.778,4.145,2.335l-0.02-1.893
		c-0.024-0.196,0.051-0.295,0.227-0.295h1.055c0.163,0,0.245,0.099,0.245,0.295v5.063c0,0.196-0.082,0.295-0.245,0.295h-1.187
		c-0.15,0-0.227-0.099-0.227-0.295v-0.295c0-0.721-0.38-1.434-1.14-2.139c-0.76-0.704-1.729-1.057-2.91-1.057
		s-2.245,0.635-3.193,1.905c-0.948,1.27-1.422,2.966-1.422,5.088s0.478,3.802,1.432,5.039s2.021,1.855,3.202,1.855
		s2.113-0.246,2.798-0.737c0.685-0.492,1.196-1.073,1.535-1.745v-1.918h-3.504c-0.15,0-0.226-0.105-0.226-0.319v-1.131
		c0-0.196,0.075-0.295,0.226-0.295h4.879c0.151,0,0.227,0.099,0.227,0.295v7.448C91.243,261.135,91.168,261.233,91.017,261.233z"/>
	<path class="st0" d="M103.489,254.843v-9.414h-1.45c-0.15,0-0.227-0.099-0.227-0.295v-1.254c0-0.196,0.076-0.295,0.227-0.295h4.54
		c0.15,0,0.226,0.099,0.226,0.295v1.254c0,0.196-0.075,0.295-0.226,0.295h-1.45v9.192c0,2.213-0.443,3.896-1.328,5.052
		c-0.886,1.155-2.136,1.732-3.749,1.732c-1.614,0-2.867-0.577-3.759-1.732s-1.337-2.839-1.337-5.052v-9.192h-1.432
		c-0.164,0-0.245-0.099-0.245-0.295v-1.254c0-0.196,0.081-0.295,0.245-0.295h4.521c0.163,0,0.245,0.099,0.245,0.295v1.254
		c0,0.196-0.082,0.295-0.245,0.295h-1.45v9.267c0,3.146,1.155,4.719,3.466,4.719c1.181,0,2.047-0.405,2.6-1.216
		C103.213,257.387,103.489,256.269,103.489,254.843z"/>
	<path class="st0" d="M120.557,261.233h-4.258c-0.15,0-0.226-0.099-0.226-0.295v-1.254c0-0.196,0.075-0.295,0.226-0.295h1.319
		l-1.225-4.252h-5.256l-1.225,4.252h1.318c0.151,0,0.227,0.099,0.227,0.295v1.254c0,0.196-0.075,0.295-0.227,0.295h-4.238
		c-0.15,0-0.227-0.099-0.227-0.295v-1.254c0-0.196,0.076-0.295,0.227-0.295h1.262l4.051-13.961h-1.018
		c-0.163,0-0.245-0.099-0.245-0.295v-1.254c0-0.196,0.082-0.295,0.245-0.295h2.563c0.301,0,0.53,0.082,0.688,0.246
		c0.156,0.164,0.292,0.434,0.404,0.811l4.333,14.748h1.281c0.15,0,0.226,0.099,0.226,0.295v1.254
		C120.782,261.135,120.707,261.233,120.557,261.233z M115.885,253.441l-2.091-7.3h-0.057l-2.11,7.3H115.885z"/>
	<path class="st0" d="M132.461,261.233h-10.304c-0.164,0-0.245-0.099-0.245-0.295v-1.254c0-0.196,0.081-0.295,0.245-0.295h1.432
		v-13.961h-1.432c-0.164,0-0.245-0.099-0.245-0.295v-1.254c0-0.196,0.081-0.295,0.245-0.295h4.502c0.163,0,0.245,0.106,0.245,0.319
		v1.204c0,0.214-0.082,0.32-0.245,0.32h-1.432v13.961h5.99v-2.408c0-0.197,0.082-0.295,0.245-0.295h1.018
		c0.15,0,0.226,0.098,0.226,0.295v3.933C132.706,261.127,132.624,261.233,132.461,261.233z"/>
	<path class="st0" d="M143.663,261.233h-1.055c-0.164,0-0.245-0.099-0.245-0.295v-5.752c0-0.213,0.081-0.319,0.245-0.319h1.187
		c0.15,0,0.226,0.106,0.226,0.319v0.517c0,0.312,0.145,0.725,0.434,1.241c0.289,0.516,0.578,0.938,0.867,1.266
		c0.288,0.328,0.675,0.61,1.158,0.848c0.483,0.238,1.008,0.356,1.573,0.356c0.967,0,1.724-0.262,2.27-0.786
		c0.547-0.524,0.819-1.254,0.819-2.188c0-0.541-0.153-1.004-0.461-1.389c-0.309-0.385-0.707-0.692-1.196-0.922
		c-0.49-0.229-1.033-0.442-1.63-0.64c-0.597-0.196-1.193-0.421-1.79-0.676c-0.596-0.254-1.14-0.557-1.629-0.909
		c-0.49-0.353-0.889-0.844-1.196-1.475s-0.462-1.372-0.462-2.225c0-1.377,0.398-2.516,1.196-3.417
		c0.798-0.9,1.868-1.352,3.212-1.352c1.695,0,2.939,0.647,3.73,1.941l-0.038-1.523c0-0.197,0.082-0.295,0.245-0.295h1.055
		c0.15,0,0.227,0.098,0.227,0.295v5.358c0,0.196-0.076,0.295-0.227,0.295h-1.187c-0.15,0-0.227-0.099-0.227-0.295v-0.688
		c0-0.672-0.289-1.352-0.866-2.04c-0.578-0.688-1.426-1.032-2.543-1.032c-0.829,0-1.498,0.258-2.007,0.774
		c-0.508,0.516-0.763,1.176-0.763,1.979c0,0.573,0.157,1.065,0.471,1.475c0.314,0.41,0.723,0.737,1.225,0.983
		c0.503,0.246,1.056,0.471,1.658,0.676s1.205,0.431,1.809,0.676c0.603,0.246,1.155,0.541,1.657,0.885
		c0.502,0.345,0.911,0.815,1.225,1.414c0.313,0.598,0.471,1.307,0.471,2.126c0,1.442-0.396,2.63-1.187,3.563
		c-0.791,0.935-1.972,1.401-3.541,1.401c-1.156,0-2.11-0.303-2.864-0.909c-0.753-0.606-1.3-1.262-1.639-1.967l0.019,2.409
		C143.889,261.135,143.813,261.233,143.663,261.233z"/>
	<path class="st0" d="M160.41,261.233h-4.916c-0.164,0-0.245-0.099-0.245-0.295v-1.254c0-0.196,0.081-0.295,0.245-0.295h1.432
		v-13.961h-1.432c-0.164,0-0.245-0.099-0.245-0.295v-1.254c0-0.196,0.081-0.295,0.245-0.295h5.802c1.331,0,2.421,0.504,3.269,1.512
		s1.271,2.368,1.271,4.08c0,1.713-0.414,3.04-1.243,3.982s-1.997,1.413-3.504,1.413h-2.524v4.817h1.846
		c0.151,0,0.227,0.099,0.227,0.295v1.254C160.637,261.135,160.562,261.233,160.41,261.233z M158.564,252.827h2.449
		c2.109,0,3.165-1.213,3.165-3.638c0-1.262-0.299-2.204-0.896-2.827c-0.597-0.622-1.347-0.934-2.251-0.934h-2.468V252.827z"/>
	<path class="st0" d="M177.554,261.233h-10.003c-0.164,0-0.245-0.099-0.245-0.295v-1.254c0-0.196,0.081-0.295,0.245-0.295h1.432
		v-13.961h-1.432c-0.164,0-0.245-0.099-0.245-0.295v-1.254c0-0.196,0.081-0.295,0.245-0.295h10.003c0.163,0,0.245,0.099,0.245,0.295
		v3.957c0,0.214-0.082,0.32-0.245,0.32h-1.018c-0.15,0-0.226-0.106-0.226-0.32v-2.408h-5.689v6.096h4.766
		c0.163,0,0.245,0.099,0.245,0.295v1.254c0,0.196-0.082,0.295-0.245,0.295h-4.766v6.021h5.67v-2.408
		c0-0.197,0.082-0.295,0.245-0.295h1.018c0.163,0,0.245,0.098,0.245,0.295v3.957C177.799,261.135,177.717,261.233,177.554,261.233z"
		/>
	<path class="st0" d="M190.326,261.233h-10.003c-0.164,0-0.245-0.099-0.245-0.295v-1.254c0-0.196,0.081-0.295,0.245-0.295h1.432
		v-13.961h-1.432c-0.164,0-0.245-0.099-0.245-0.295v-1.254c0-0.196,0.081-0.295,0.245-0.295h10.003c0.163,0,0.245,0.099,0.245,0.295
		v3.957c0,0.214-0.082,0.32-0.245,0.32h-1.018c-0.15,0-0.226-0.106-0.226-0.32v-2.408h-5.689v6.096h4.766
		c0.163,0,0.245,0.099,0.245,0.295v1.254c0,0.196-0.082,0.295-0.245,0.295h-4.766v6.021h5.67v-2.408
		c0-0.197,0.082-0.295,0.245-0.295h1.018c0.163,0,0.245,0.098,0.245,0.295v3.957C190.571,261.135,190.489,261.233,190.326,261.233z"
		/>
	<path class="st0" d="M204.831,256.784c0.063,0.065,0.095,0.144,0.095,0.233c0,0.091-0.028,0.214-0.085,0.369
		c-0.057,0.156-0.15,0.36-0.282,0.614s-0.368,0.603-0.707,1.045s-0.709,0.823-1.111,1.143s-0.933,0.603-1.592,0.849
		c-0.659,0.245-1.365,0.368-2.119,0.368c-1.834,0-3.362-0.836-4.587-2.507c-1.225-1.672-1.837-3.863-1.837-6.575
		s0.618-4.871,1.855-6.477c1.237-1.606,2.729-2.409,4.474-2.409c1.947,0,3.359,0.877,4.239,2.63l-0.02-2.188
		c-0.024-0.196,0.051-0.295,0.227-0.295h1.055c0.163,0,0.245,0.099,0.245,0.295v5.358c0,0.213-0.082,0.319-0.245,0.319h-1.187
		c-0.15,0-0.227-0.106-0.227-0.319v-0.221c0-0.754-0.393-1.537-1.177-2.348c-0.785-0.812-1.762-1.217-2.93-1.217
		s-2.22,0.603-3.155,1.807s-1.403,2.909-1.403,5.112c0,2.204,0.471,3.917,1.413,5.138c0.941,1.221,2.047,1.831,3.315,1.831
		c1.368,0,2.449-0.401,3.24-1.204c0.615-0.623,1.067-1.254,1.356-1.894c0.1-0.245,0.219-0.295,0.357-0.147L204.831,256.784z"/>
	<path class="st0" d="M220.261,261.233h-4.54c-0.151,0-0.227-0.099-0.227-0.295v-1.254c0-0.196,0.075-0.295,0.227-0.295h1.45v-6.021
		h-7.008v6.021h1.45c0.163,0,0.245,0.099,0.245,0.295v1.254c0,0.196-0.082,0.295-0.245,0.295h-4.521
		c-0.164,0-0.245-0.099-0.245-0.295v-1.254c0-0.196,0.081-0.295,0.245-0.295h1.432v-13.961h-1.432c-0.164,0-0.245-0.099-0.245-0.295
		v-1.254c0-0.196,0.081-0.295,0.245-0.295h4.521c0.163,0,0.245,0.099,0.245,0.295v1.254c0,0.196-0.082,0.295-0.245,0.295h-1.45
		v6.145h7.008v-6.145h-1.45c-0.151,0-0.227-0.099-0.227-0.295v-1.254c0-0.196,0.075-0.295,0.227-0.295h4.54
		c0.15,0,0.226,0.099,0.226,0.295v1.254c0,0.196-0.075,0.295-0.226,0.295h-1.451v13.961h1.451c0.15,0,0.226,0.099,0.226,0.295v1.254
		C220.486,261.135,220.411,261.233,220.261,261.233z"/>
	<path class="st0" d="M240.58,261.233h-1.525c-0.265,0-0.565-0.303-0.904-0.909l-0.396-0.737c-0.893,1.213-2.038,1.818-3.438,1.818
		s-2.483-0.504-3.25-1.512c-0.766-1.008-1.148-2.158-1.148-3.453c0-1.524,0.396-2.72,1.187-3.589
		c0.615-0.672,1.293-1.204,2.034-1.598c-0.854-1.294-1.28-2.564-1.28-3.81s0.298-2.225,0.895-2.938s1.334-1.069,2.214-1.069
		c0.879,0,1.623,0.328,2.231,0.983c0.609,0.655,0.914,1.573,0.914,2.753s-0.261,2.113-0.782,2.802
		c-0.521,0.688-1.221,1.319-2.1,1.893l2.505,4.646c0.326-0.868,0.49-2.097,0.49-3.687c0-0.197,0.081-0.295,0.245-0.295h2.486
		c0.15,0,0.226,0.098,0.226,0.295v0.909c0,0.197-0.075,0.295-0.226,0.295h-1.395c-0.05,1.475-0.357,2.852-0.923,4.13l0.754,1.376
		h1.187c0.163,0,0.245,0.099,0.245,0.295v1.106C240.825,261.135,240.743,261.233,240.58,261.233z M231.595,256.392
		c0,0.967,0.27,1.745,0.81,2.335s1.199,0.885,1.979,0.885c1.079,0,1.934-0.492,2.562-1.475l-2.977-5.433
		c-1.105,0.623-1.821,1.368-2.147,2.236C231.67,255.384,231.595,255.867,231.595,256.392z M236.492,248.55
		c0.125-0.344,0.188-0.778,0.188-1.303s-0.142-0.995-0.424-1.413s-0.679-0.627-1.187-0.627c-0.509,0-0.921,0.205-1.234,0.614
		c-0.313,0.41-0.471,1.004-0.471,1.782s0.37,1.758,1.111,2.938C235.594,249.902,236.267,249.238,236.492,248.55z"/>
	<path class="st0" d="M261.201,261.233h-10.304c-0.164,0-0.245-0.099-0.245-0.295v-1.254c0-0.196,0.081-0.295,0.245-0.295h1.432
		v-13.961h-1.432c-0.164,0-0.245-0.099-0.245-0.295v-1.254c0-0.196,0.081-0.295,0.245-0.295h4.502c0.163,0,0.245,0.106,0.245,0.319
		v1.204c0,0.214-0.082,0.32-0.245,0.32h-1.432v13.961h5.99v-2.408c0-0.197,0.082-0.295,0.245-0.295h1.018
		c0.15,0,0.226,0.098,0.226,0.295v3.933C261.446,261.127,261.364,261.233,261.201,261.233z"/>
	<path class="st0" d="M276.725,261.233h-4.258c-0.15,0-0.226-0.099-0.226-0.295v-1.254c0-0.196,0.075-0.295,0.226-0.295h1.319
		l-1.225-4.252h-5.256l-1.225,4.252h1.318c0.151,0,0.227,0.099,0.227,0.295v1.254c0,0.196-0.075,0.295-0.227,0.295h-4.238
		c-0.15,0-0.227-0.099-0.227-0.295v-1.254c0-0.196,0.076-0.295,0.227-0.295h1.262l4.051-13.961h-1.018
		c-0.163,0-0.245-0.099-0.245-0.295v-1.254c0-0.196,0.082-0.295,0.245-0.295h2.563c0.301,0,0.53,0.082,0.688,0.246
		c0.156,0.164,0.292,0.434,0.404,0.811l4.333,14.748h1.281c0.15,0,0.226,0.099,0.226,0.295v1.254
		C276.95,261.135,276.875,261.233,276.725,261.233z M272.053,253.441l-2.091-7.3h-0.057l-2.11,7.3H272.053z"/>
	<path class="st0" d="M289.798,261.233h-1.017c-0.239,0-0.428-0.062-0.565-0.185c-0.139-0.123-0.271-0.315-0.396-0.577l-5.444-11.11
		l-0.941-2.064h-0.038v12.093h1.45c0.163,0,0.245,0.099,0.245,0.295v1.254c0,0.196-0.082,0.295-0.245,0.295h-4.521
		c-0.164,0-0.245-0.099-0.245-0.295v-1.254c0-0.196,0.081-0.295,0.245-0.295h1.432v-13.961h-1.432c-0.164,0-0.245-0.099-0.245-0.295
		v-1.254c0-0.196,0.081-0.295,0.245-0.295h2.637c0.364,0,0.685,0.278,0.961,0.836l5.369,10.963l1.073,2.384h0.038v-12.339h-1.45
		c-0.151,0-0.227-0.099-0.227-0.295v-1.254c0-0.196,0.075-0.295,0.227-0.295h4.54c0.15,0,0.226,0.099,0.226,0.295v1.254
		c0,0.196-0.075,0.295-0.226,0.295h-1.451v15.51C290.043,261.135,289.961,261.233,289.798,261.233z"/>
	<path class="st0" d="M305.057,261.233h-0.998c-0.163,0-0.245-0.099-0.245-0.295l0.019-1.696c-1.104,1.442-2.577,2.163-4.417,2.163
		s-3.375-0.836-4.606-2.507c-1.23-1.672-1.846-3.867-1.846-6.588c0-1.818,0.311-3.416,0.933-4.793
		c0.621-1.376,1.413-2.4,2.373-3.072c0.961-0.672,2-1.008,3.118-1.008c1.922,0,3.303,0.778,4.145,2.335l-0.02-1.893
		c-0.024-0.196,0.051-0.295,0.227-0.295h1.055c0.163,0,0.245,0.099,0.245,0.295v5.063c0,0.196-0.082,0.295-0.245,0.295h-1.187
		c-0.15,0-0.227-0.099-0.227-0.295v-0.295c0-0.721-0.38-1.434-1.14-2.139c-0.76-0.704-1.729-1.057-2.91-1.057
		s-2.245,0.635-3.193,1.905c-0.948,1.27-1.422,2.966-1.422,5.088s0.478,3.802,1.432,5.039s2.021,1.855,3.202,1.855
		s2.113-0.246,2.798-0.737c0.685-0.492,1.196-1.073,1.535-1.745v-1.918h-3.504c-0.15,0-0.226-0.105-0.226-0.319v-1.131
		c0-0.196,0.075-0.295,0.226-0.295h4.879c0.151,0,0.227,0.099,0.227,0.295v7.448C305.283,261.135,305.208,261.233,305.057,261.233z"
		/>
	<path class="st0" d="M317.528,254.843v-9.414h-1.45c-0.15,0-0.227-0.099-0.227-0.295v-1.254c0-0.196,0.076-0.295,0.227-0.295h4.54
		c0.15,0,0.226,0.099,0.226,0.295v1.254c0,0.196-0.075,0.295-0.226,0.295h-1.45v9.192c0,2.213-0.443,3.896-1.328,5.052
		c-0.886,1.155-2.136,1.732-3.749,1.732c-1.614,0-2.867-0.577-3.759-1.732s-1.337-2.839-1.337-5.052v-9.192h-1.432
		c-0.164,0-0.245-0.099-0.245-0.295v-1.254c0-0.196,0.081-0.295,0.245-0.295h4.521c0.163,0,0.245,0.099,0.245,0.295v1.254
		c0,0.196-0.082,0.295-0.245,0.295h-1.45v9.267c0,3.146,1.155,4.719,3.466,4.719c1.181,0,2.047-0.405,2.6-1.216
		C317.252,257.387,317.528,256.269,317.528,254.843z"/>
	<path class="st0" d="M334.596,261.233h-4.258c-0.15,0-0.226-0.099-0.226-0.295v-1.254c0-0.196,0.075-0.295,0.226-0.295h1.319
		l-1.225-4.252h-5.256l-1.225,4.252h1.318c0.151,0,0.227,0.099,0.227,0.295v1.254c0,0.196-0.075,0.295-0.227,0.295h-4.238
		c-0.15,0-0.227-0.099-0.227-0.295v-1.254c0-0.196,0.076-0.295,0.227-0.295h1.262l4.051-13.961h-1.018
		c-0.163,0-0.245-0.099-0.245-0.295v-1.254c0-0.196,0.082-0.295,0.245-0.295h2.563c0.301,0,0.53,0.082,0.688,0.246
		c0.156,0.164,0.292,0.434,0.404,0.811l4.333,14.748h1.281c0.15,0,0.226,0.099,0.226,0.295v1.254
		C334.821,261.135,334.746,261.233,334.596,261.233z M329.924,253.441l-2.091-7.3h-0.057l-2.11,7.3H329.924z"/>
	<path class="st0" d="M347.613,261.233h-0.998c-0.163,0-0.245-0.099-0.245-0.295l0.019-1.696c-1.104,1.442-2.577,2.163-4.417,2.163
		s-3.375-0.836-4.606-2.507c-1.23-1.672-1.846-3.867-1.846-6.588c0-1.818,0.311-3.416,0.933-4.793
		c0.621-1.376,1.413-2.4,2.373-3.072c0.961-0.672,2-1.008,3.118-1.008c1.922,0,3.303,0.778,4.145,2.335l-0.02-1.893
		c-0.024-0.196,0.051-0.295,0.227-0.295h1.055c0.163,0,0.245,0.099,0.245,0.295v5.063c0,0.196-0.082,0.295-0.245,0.295h-1.187
		c-0.15,0-0.227-0.099-0.227-0.295v-0.295c0-0.721-0.38-1.434-1.14-2.139c-0.76-0.704-1.729-1.057-2.91-1.057
		s-2.245,0.635-3.193,1.905c-0.948,1.27-1.422,2.966-1.422,5.088s0.478,3.802,1.432,5.039s2.021,1.855,3.202,1.855
		s2.113-0.246,2.798-0.737c0.685-0.492,1.196-1.073,1.535-1.745v-1.918h-3.504c-0.15,0-0.226-0.105-0.226-0.319v-1.131
		c0-0.196,0.075-0.295,0.226-0.295h4.879c0.151,0,0.227,0.099,0.227,0.295v7.448C347.84,261.135,347.765,261.233,347.613,261.233z"
		/>
	<path class="st0" d="M360.442,261.233h-10.003c-0.164,0-0.245-0.099-0.245-0.295v-1.254c0-0.196,0.081-0.295,0.245-0.295h1.432
		v-13.961h-1.432c-0.164,0-0.245-0.099-0.245-0.295v-1.254c0-0.196,0.081-0.295,0.245-0.295h10.003c0.163,0,0.245,0.099,0.245,0.295
		v3.957c0,0.214-0.082,0.32-0.245,0.32h-1.018c-0.15,0-0.226-0.106-0.226-0.32v-2.408h-5.689v6.096h4.766
		c0.163,0,0.245,0.099,0.245,0.295v1.254c0,0.196-0.082,0.295-0.245,0.295h-4.766v6.021h5.67v-2.408
		c0-0.197,0.082-0.295,0.245-0.295h1.018c0.163,0,0.245,0.098,0.245,0.295v3.957C360.688,261.135,360.605,261.233,360.442,261.233z"
		/>
	<path class="st0" d="M382.847,261.233h-4.916c-0.164,0-0.245-0.099-0.245-0.295v-1.254c0-0.196,0.081-0.295,0.245-0.295h1.432
		v-13.961h-1.432c-0.164,0-0.245-0.099-0.245-0.295v-1.254c0-0.196,0.081-0.295,0.245-0.295h5.802c1.331,0,2.421,0.504,3.269,1.512
		s1.271,2.368,1.271,4.08c0,1.713-0.414,3.04-1.243,3.982s-1.997,1.413-3.504,1.413h-2.524v4.817h1.846
		c0.151,0,0.227,0.099,0.227,0.295v1.254C383.073,261.135,382.998,261.233,382.847,261.233z M381.001,252.827h2.449
		c2.109,0,3.165-1.213,3.165-3.638c0-1.262-0.299-2.204-0.896-2.827c-0.597-0.622-1.347-0.934-2.251-0.934h-2.468V252.827z"/>
	<path class="st0" d="M401.385,261.233h-4.258c-0.15,0-0.226-0.099-0.226-0.295v-1.254c0-0.196,0.075-0.295,0.226-0.295h1.319
		l-1.225-4.252h-5.256l-1.225,4.252h1.318c0.151,0,0.227,0.099,0.227,0.295v1.254c0,0.196-0.075,0.295-0.227,0.295h-4.238
		c-0.15,0-0.227-0.099-0.227-0.295v-1.254c0-0.196,0.076-0.295,0.227-0.295h1.262l4.051-13.961h-1.018
		c-0.163,0-0.245-0.099-0.245-0.295v-1.254c0-0.196,0.082-0.295,0.245-0.295h2.563c0.301,0,0.53,0.082,0.688,0.246
		c0.156,0.164,0.292,0.434,0.404,0.811l4.333,14.748h1.281c0.15,0,0.226,0.099,0.226,0.295v1.254
		C401.61,261.135,401.535,261.233,401.385,261.233z M396.713,253.441l-2.091-7.3h-0.057l-2.11,7.3H396.713z"/>
	<path class="st0" d="M408.656,261.233h-4.39c-0.163,0-0.245-0.106-0.245-0.319v-1.205c0-0.212,0.082-0.319,0.245-0.319h1.432
		v-13.961h-3.561v2.605c0,0.229-0.088,0.344-0.264,0.344h-1.055c-0.176,0-0.264-0.114-0.264-0.344v-4.13
		c0-0.213,0.088-0.319,0.264-0.319h11.359c0.176,0,0.264,0.106,0.264,0.319v4.13c0,0.229-0.088,0.344-0.264,0.344h-1.074
		c-0.163,0-0.244-0.114-0.244-0.344v-2.605h-3.523v13.961h1.319c0.176,0,0.264,0.107,0.264,0.319v1.205
		C408.92,261.127,408.832,261.233,408.656,261.233z"/>
	<path class="st0" d="M428.003,261.233h-4.54c-0.151,0-0.227-0.099-0.227-0.295v-1.254c0-0.196,0.075-0.295,0.227-0.295h1.45v-6.021
		h-7.008v6.021h1.45c0.163,0,0.245,0.099,0.245,0.295v1.254c0,0.196-0.082,0.295-0.245,0.295h-4.521
		c-0.164,0-0.245-0.099-0.245-0.295v-1.254c0-0.196,0.081-0.295,0.245-0.295h1.432v-13.961h-1.432c-0.164,0-0.245-0.099-0.245-0.295
		v-1.254c0-0.196,0.081-0.295,0.245-0.295h4.521c0.163,0,0.245,0.099,0.245,0.295v1.254c0,0.196-0.082,0.295-0.245,0.295h-1.45
		v6.145h7.008v-6.145h-1.45c-0.151,0-0.227-0.099-0.227-0.295v-1.254c0-0.196,0.075-0.295,0.227-0.295h4.54
		c0.15,0,0.226,0.099,0.226,0.295v1.254c0,0.196-0.075,0.295-0.226,0.295h-1.451v13.961h1.451c0.15,0,0.226,0.099,0.226,0.295v1.254
		C428.229,261.135,428.153,261.233,428.003,261.233z"/>
	<path class="st0" d="M442.998,252.323c0,2.695-0.619,4.883-1.855,6.563c-1.237,1.68-2.795,2.52-4.672,2.52
		c-1.878,0-3.444-0.848-4.7-2.544s-1.884-3.884-1.884-6.563c0-2.68,0.646-4.826,1.94-6.44c1.293-1.613,2.838-2.421,4.634-2.421
		s3.335,0.808,4.615,2.421C442.357,247.473,442.998,249.628,442.998,252.323z M433.099,257.534c0.961,1.254,2.082,1.88,3.362,1.88
		c1.281,0,2.398-0.626,3.354-1.88c0.954-1.254,1.432-2.975,1.432-5.162s-0.487-3.899-1.46-5.137
		c-0.974-1.237-2.082-1.856-3.325-1.856s-2.354,0.619-3.334,1.856s-1.47,2.949-1.47,5.137S432.138,256.28,433.099,257.534z"/>
	<path class="st0" d="M454.961,261.233h-10.304c-0.164,0-0.245-0.099-0.245-0.295v-1.254c0-0.196,0.081-0.295,0.245-0.295h1.432
		v-13.961h-1.432c-0.164,0-0.245-0.099-0.245-0.295v-1.254c0-0.196,0.081-0.295,0.245-0.295h4.502c0.163,0,0.245,0.106,0.245,0.319
		v1.204c0,0.214-0.082,0.32-0.245,0.32h-1.432v13.961h5.99v-2.408c0-0.197,0.082-0.295,0.245-0.295h1.018
		c0.15,0,0.226,0.098,0.226,0.295v3.933C455.206,261.127,455.124,261.233,454.961,261.233z"/>
	<path class="st0" d="M469.56,252.323c0,2.695-0.619,4.883-1.855,6.563c-1.237,1.68-2.795,2.52-4.672,2.52
		c-1.878,0-3.444-0.848-4.7-2.544s-1.884-3.884-1.884-6.563c0-2.68,0.646-4.826,1.94-6.44c1.293-1.613,2.838-2.421,4.634-2.421
		s3.335,0.808,4.615,2.421C468.919,247.473,469.56,249.628,469.56,252.323z M459.66,257.534c0.961,1.254,2.082,1.88,3.362,1.88
		c1.281,0,2.398-0.626,3.354-1.88c0.954-1.254,1.432-2.975,1.432-5.162s-0.487-3.899-1.46-5.137
		c-0.974-1.237-2.082-1.856-3.325-1.856s-2.354,0.619-3.334,1.856s-1.47,2.949-1.47,5.137S458.699,256.28,459.66,257.534z"/>
	<path class="st0" d="M483.989,261.233h-0.998c-0.163,0-0.245-0.099-0.245-0.295l0.019-1.696c-1.104,1.442-2.577,2.163-4.417,2.163
		s-3.375-0.836-4.606-2.507c-1.23-1.672-1.846-3.867-1.846-6.588c0-1.818,0.311-3.416,0.933-4.793
		c0.621-1.376,1.413-2.4,2.373-3.072c0.961-0.672,2-1.008,3.118-1.008c1.922,0,3.303,0.778,4.145,2.335l-0.02-1.893
		c-0.024-0.196,0.051-0.295,0.227-0.295h1.055c0.163,0,0.245,0.099,0.245,0.295v5.063c0,0.196-0.082,0.295-0.245,0.295h-1.187
		c-0.15,0-0.227-0.099-0.227-0.295v-0.295c0-0.721-0.38-1.434-1.14-2.139c-0.76-0.704-1.729-1.057-2.91-1.057
		s-2.245,0.635-3.193,1.905c-0.948,1.27-1.422,2.966-1.422,5.088s0.478,3.802,1.432,5.039s2.021,1.855,3.202,1.855
		s2.113-0.246,2.798-0.737c0.685-0.492,1.196-1.073,1.535-1.745v-1.918h-3.504c-0.15,0-0.226-0.105-0.226-0.319v-1.131
		c0-0.196,0.075-0.295,0.226-0.295h4.879c0.151,0,0.227,0.099,0.227,0.295v7.448C484.216,261.135,484.141,261.233,483.989,261.233z"
		/>
	<path class="st0" d="M491.336,261.233h-4.521c-0.164,0-0.245-0.099-0.245-0.295v-1.254c0-0.196,0.081-0.295,0.245-0.295h1.432
		v-13.961h-1.432c-0.164,0-0.245-0.099-0.245-0.295v-1.254c0-0.196,0.081-0.295,0.245-0.295h4.521c0.163,0,0.245,0.099,0.245,0.295
		v1.254c0,0.196-0.082,0.295-0.245,0.295h-1.45v13.961h1.45c0.163,0,0.245,0.099,0.245,0.295v1.254
		C491.581,261.135,491.499,261.233,491.336,261.233z"/>
	<path class="st0" d="M495.161,261.233h-1.055c-0.164,0-0.245-0.099-0.245-0.295v-5.752c0-0.213,0.081-0.319,0.245-0.319h1.187
		c0.15,0,0.226,0.106,0.226,0.319v0.517c0,0.312,0.145,0.725,0.434,1.241c0.289,0.516,0.578,0.938,0.867,1.266
		c0.288,0.328,0.675,0.61,1.158,0.848c0.483,0.238,1.008,0.356,1.573,0.356c0.967,0,1.724-0.262,2.27-0.786
		c0.547-0.524,0.819-1.254,0.819-2.188c0-0.541-0.153-1.004-0.461-1.389c-0.309-0.385-0.707-0.692-1.196-0.922
		c-0.49-0.229-1.033-0.442-1.63-0.64c-0.597-0.196-1.193-0.421-1.79-0.676c-0.596-0.254-1.14-0.557-1.629-0.909
		c-0.49-0.353-0.889-0.844-1.196-1.475s-0.462-1.372-0.462-2.225c0-1.377,0.398-2.516,1.196-3.417
		c0.798-0.9,1.868-1.352,3.212-1.352c1.695,0,2.939,0.647,3.73,1.941l-0.038-1.523c0-0.197,0.082-0.295,0.245-0.295h1.055
		c0.15,0,0.227,0.098,0.227,0.295v5.358c0,0.196-0.076,0.295-0.227,0.295h-1.187c-0.15,0-0.227-0.099-0.227-0.295v-0.688
		c0-0.672-0.289-1.352-0.866-2.04c-0.578-0.688-1.426-1.032-2.543-1.032c-0.829,0-1.498,0.258-2.007,0.774
		c-0.508,0.516-0.763,1.176-0.763,1.979c0,0.573,0.157,1.065,0.471,1.475c0.314,0.41,0.723,0.737,1.225,0.983
		c0.503,0.246,1.056,0.471,1.658,0.676s1.205,0.431,1.809,0.676c0.603,0.246,1.155,0.541,1.657,0.885
		c0.502,0.345,0.911,0.815,1.225,1.414c0.313,0.598,0.471,1.307,0.471,2.126c0,1.442-0.396,2.63-1.187,3.563
		c-0.791,0.935-1.972,1.401-3.541,1.401c-1.156,0-2.11-0.303-2.864-0.909c-0.753-0.606-1.3-1.262-1.639-1.967l0.019,2.409
		C495.387,261.135,495.312,261.233,495.161,261.233z"/>
	<path class="st0" d="M514.771,261.233h-4.39c-0.163,0-0.245-0.106-0.245-0.319v-1.205c0-0.212,0.082-0.319,0.245-0.319h1.432
		v-13.961h-3.561v2.605c0,0.229-0.088,0.344-0.264,0.344h-1.055c-0.176,0-0.264-0.114-0.264-0.344v-4.13
		c0-0.213,0.088-0.319,0.264-0.319h11.359c0.176,0,0.264,0.106,0.264,0.319v4.13c0,0.229-0.088,0.344-0.264,0.344h-1.074
		c-0.163,0-0.244-0.114-0.244-0.344v-2.605h-3.523v13.961h1.319c0.176,0,0.264,0.107,0.264,0.319v1.205
		C515.035,261.127,514.947,261.233,514.771,261.233z"/>
</g>
<rect x="25.218" y="219.684" class="st1" width="493.456" height="4.302"/>
</svg>
