<?xml version="1.0" encoding="utf-8"?>
<!-- Generator: Adobe Illustrator 14.0.0, SVG Export Plug-In . SVG Version: 6.00 Build 43363)  -->
<!DOCTYPE svg PUBLIC "-//W3C//DTD SVG 1.1//EN" "http://www.w3.org/Graphics/SVG/1.1/DTD/svg11.dtd">
<svg version="1.1" id="Layer_1" xmlns="http://www.w3.org/2000/svg" xmlns:xlink="http://www.w3.org/1999/xlink" x="0px" y="0px"
	 width="543.019px" height="281.833px" viewBox="0 0 543.019 281.833" style="enable-background:new 0 0 543.019 281.833;"
	 xml:space="preserve">
<style type="text/css">
<![CDATA[
	.st0{fill:#939598;}
	.st1{fill:#FFFFFF;}
]]>
</style>
<path class="st1" d="M84.04,194.182v-72.325h4.069v68.256h28.025v4.069H84.04z"/>
<path class="st1" d="M185.343,121.856h4.475l37.158,64.323v-64.323h4.069v72.325h-4.069l-37.563-64.959v64.959h-4.069V121.856z"/>
<path class="st1" d="M302.332,182.657l3.074,2.754c-7.052,6.422-15.354,9.629-24.909,9.629c-10.245,0-18.979-3.608-26.194-10.826
	c-7.218-7.218-10.826-15.949-10.826-26.194c0-10.218,3.608-18.941,10.826-26.175c7.216-7.233,15.949-10.85,26.194-10.85
	c9.555,0,17.857,3.211,24.909,9.628l-3.074,2.806c-6.209-5.517-13.485-8.275-21.835-8.275c-9.07,0-16.814,3.211-23.234,9.629
	c-6.418,6.422-9.627,14.166-9.627,23.237c0,9.102,3.209,16.862,9.627,23.28c6.42,6.417,14.164,9.628,23.234,9.628
	C288.847,190.928,296.123,188.17,302.332,182.657z"/>
<path class="st1" d="M320.776,148.563v45.619h-4.069v-72.325h4.069v22.637h30.286v-22.637h4.067v72.325h-4.067v-45.619H320.776z"/>
<path class="st1" d="M480.349,121.946h0.316c11.903,0,21.124,3.285,27.665,9.855c7.231,7.261,10.848,16,10.848,26.218
	c0,10.245-3.616,18.984-10.848,26.218c-6.541,6.57-15.762,9.854-27.665,9.854h-0.316v0.09h-4.068v-72.325h4.068V121.946z
	 M480.349,126.105v63.875h0.316c10.727,0,18.971-2.896,24.726-8.681c6.42-6.418,9.629-14.179,9.629-23.28
	c0-9.071-3.209-16.831-9.629-23.28c-5.755-5.758-13.999-8.634-24.726-8.634H480.349z"/>
<path class="st0" d="M65.957,151.691c-2.983-3.285-6.163-5.274-9.537-5.97c3.827-3.223,5.741-6.702,5.741-10.439
	c0-3.707-1.319-6.871-3.957-9.492c-2.637-2.622-5.809-3.934-9.516-3.934H35.852v22.273h4.069v-18.208h8.768
	c2.714,0,4.988,0.882,6.826,2.646s2.758,4.003,2.758,6.715c0,2.711-0.92,4.911-2.758,6.597c-1.268,1.175-2.755,1.932-4.44,2.306
	v4.74h-0.056c4.537,0.539,8.499,2.474,11.865,5.841c4.008,4.007,6.013,8.845,6.013,14.51s-2.005,10.561-6.013,14.692
	c-3.647,3.796-7.987,5.86-13.019,6.191v-0.047h-9.944v-41.188h-4.069v45.257h14.014v-0.043c6.238-0.093,11.601-2.458,16.092-7.101
	c4.822-5.001,7.233-10.924,7.233-17.763C73.19,162.404,70.779,156.541,65.957,151.691z"/>
<g>
	<polygon class="st0" points="145.02,144.13 149.405,132.071 153.97,144.13 158.108,144.13 149.405,120.184 140.685,144.13 	"/>
	<polygon class="st0" points="138.941,148.925 122.464,194.182 126.802,194.182 143.26,148.925 	"/>
	<polygon class="st0" points="159.851,148.925 155.741,148.925 172.006,194.182 176.302,194.182 	"/>
</g>
<g>
	<polygon class="st0" points="386.728,144.13 391.113,132.071 395.678,144.13 399.817,144.13 391.113,120.184 382.394,144.13 	"/>
	<polygon class="st0" points="380.649,148.925 364.172,194.182 368.51,194.182 384.969,148.925 	"/>
	<polygon class="st0" points="401.56,148.925 397.449,148.925 413.714,194.182 418.01,194.182 	"/>
</g>
<g>
	<rect x="427.052" y="169.389" class="st0" width="4.068" height="24.793"/>
	<path class="st0" d="M460.097,162.179c4.609-4.612,6.915-10.187,6.915-16.726c0-6.512-2.306-12.071-6.915-16.683
		c-3.858-3.854-8.544-6.16-14.059-6.914h-18.986v42.737h4.068v-38.625h12.296c5.362,0,9.95,1.9,13.765,5.696
		c3.812,3.796,5.717,8.393,5.717,13.788s-1.905,9.995-5.717,13.807c-3.51,3.512-7.683,5.385-12.503,5.661v4.194l16.096,25.066h5.018
		L449.11,168.46C453.239,167.465,456.901,165.374,460.097,162.179z"/>
</g>
<path class="st1" d="M39.921,23.248h0.315c11.903,0,21.126,3.285,27.665,9.854c7.233,7.265,10.85,16.004,10.85,26.218
	c0,10.249-3.616,18.988-10.85,26.222c-6.539,6.57-15.762,9.852-27.665,9.852h-0.315v0.094h-4.069V23.158h4.069V23.248z
	 M39.921,27.407v63.874h0.315c10.729,0,18.973-2.891,24.728-8.681c6.418-6.418,9.629-14.178,9.629-23.28
	c0-9.07-3.211-16.83-9.629-23.279c-5.755-5.755-13.998-8.634-24.728-8.634H39.921z"/>
<path class="st1" d="M146.153,23.158h4.475l37.157,64.327V23.158h4.069v72.329h-4.069l-37.563-64.959v64.959h-4.068V23.158z"/>
<path class="st1" d="M261.016,23.158v4.069h-32.094v18.57h32.094v4.069h-32.094v41.551h32.094v4.069h-36.163V23.158H261.016z"/>
<path class="st1" d="M273.445,95.487V23.158h4.069v68.26h28.028v4.069H273.445z"/>
<g>
	<polygon class="st0" points="105.827,45.436 110.213,33.376 114.777,45.436 118.917,45.436 110.213,21.488 101.493,45.436 	"/>
	<polygon class="st0" points="99.749,50.23 83.273,95.483 87.611,95.483 104.068,50.23 	"/>
	<polygon class="st0" points="120.661,50.23 116.549,50.23 132.813,95.483 137.109,95.483 	"/>
</g>
<g>
	<rect x="206.317" y="23.158" class="st0" width="4.069" height="22.277"/>
	<rect x="206.317" y="50.23" class="st0" width="4.069" height="45.257"/>
</g>
<g>
	<path class="st0" d="M38.715,263.912h-1.372c-0.212,0-0.318-0.128-0.318-0.384v-7.479c0-0.276,0.106-0.415,0.318-0.415h1.543
		c0.196,0,0.294,0.139,0.294,0.415v0.671c0,0.405,0.188,0.943,0.563,1.614s0.751,1.22,1.127,1.646
		c0.375,0.427,0.878,0.795,1.506,1.104c0.629,0.309,1.311,0.463,2.046,0.463c1.257,0,2.241-0.341,2.951-1.022
		c0.711-0.682,1.065-1.63,1.065-2.845c0-0.703-0.2-1.305-0.6-1.806c-0.4-0.5-0.919-0.9-1.556-1.198
		c-0.637-0.299-1.343-0.575-2.118-0.831c-0.776-0.256-1.552-0.549-2.327-0.879c-0.776-0.33-1.482-0.725-2.119-1.183
		s-1.155-1.098-1.556-1.918s-0.6-1.784-0.6-2.893c0-1.789,0.518-3.271,1.556-4.442c1.036-1.172,2.429-1.758,4.176-1.758
		c2.205,0,3.821,0.842,4.85,2.525l-0.049-1.981c0-0.256,0.106-0.384,0.318-0.384h1.372c0.196,0,0.294,0.128,0.294,0.384v6.967
		c0,0.256-0.098,0.384-0.294,0.384h-1.543c-0.196,0-0.294-0.128-0.294-0.384v-0.895c0-0.874-0.376-1.758-1.127-2.653
		c-0.751-0.895-1.854-1.342-3.307-1.342c-1.078,0-1.947,0.335-2.608,1.007c-0.662,0.671-0.992,1.529-0.992,2.572
		c0,0.746,0.204,1.386,0.612,1.918c0.408,0.533,0.938,0.959,1.592,1.278s1.372,0.613,2.155,0.879
		c0.784,0.267,1.568,0.56,2.352,0.879c0.784,0.319,1.503,0.703,2.156,1.15c0.652,0.447,1.184,1.061,1.592,1.838
		c0.408,0.778,0.612,1.699,0.612,2.765c0,1.875-0.515,3.42-1.543,4.635c-1.029,1.214-2.564,1.821-4.605,1.821
		c-1.502,0-2.743-0.394-3.723-1.183c-0.98-0.788-1.69-1.641-2.131-2.557l0.024,3.132C39.009,263.784,38.91,263.912,38.715,263.912z"
		/>
	<path class="st0" d="M60.491,263.912h-6.394c-0.212,0-0.318-0.128-0.318-0.384v-1.63c0-0.256,0.106-0.384,0.318-0.384h1.861
		v-18.153h-1.861c-0.212,0-0.318-0.128-0.318-0.384v-1.63c0-0.256,0.106-0.383,0.318-0.383h7.544c1.731,0,3.148,0.654,4.25,1.965
		c1.103,1.311,1.653,3.079,1.653,5.306s-0.538,3.953-1.616,5.178c-1.078,1.226-2.597,1.838-4.556,1.838H58.09v6.264h2.401
		c0.195,0,0.294,0.128,0.294,0.384v1.63C60.785,263.784,60.687,263.912,60.491,263.912z M58.09,252.981h3.185
		c2.743,0,4.115-1.576,4.115-4.73c0-1.64-0.388-2.865-1.163-3.675c-0.776-0.81-1.752-1.215-2.928-1.215H58.09V252.981z"/>
	<path class="st0" d="M82.78,263.912H69.773c-0.212,0-0.318-0.128-0.318-0.384v-1.63c0-0.256,0.106-0.384,0.318-0.384h1.861v-18.153
		h-1.861c-0.212,0-0.318-0.128-0.318-0.384v-1.63c0-0.256,0.106-0.383,0.318-0.383H82.78c0.212,0,0.318,0.127,0.318,0.383v5.146
		c0,0.277-0.106,0.416-0.318,0.416h-1.323c-0.195,0-0.294-0.139-0.294-0.416v-3.132h-7.397v7.927h6.197
		c0.212,0,0.318,0.127,0.318,0.383v1.63c0,0.256-0.106,0.384-0.318,0.384h-6.197v7.83h7.373v-3.132c0-0.256,0.106-0.384,0.318-0.384
		h1.323c0.212,0,0.318,0.128,0.318,0.384v5.146C83.099,263.784,82.992,263.912,82.78,263.912z"/>
	<path class="st0" d="M99.388,263.912H86.381c-0.212,0-0.318-0.128-0.318-0.384v-1.63c0-0.256,0.106-0.384,0.318-0.384h1.861
		v-18.153h-1.861c-0.212,0-0.318-0.128-0.318-0.384v-1.63c0-0.256,0.106-0.383,0.318-0.383h13.007c0.212,0,0.318,0.127,0.318,0.383
		v5.146c0,0.277-0.106,0.416-0.318,0.416h-1.323c-0.195,0-0.294-0.139-0.294-0.416v-3.132h-7.397v7.927h6.197
		c0.212,0,0.318,0.127,0.318,0.383v1.63c0,0.256-0.106,0.384-0.318,0.384h-6.197v7.83h7.373v-3.132c0-0.256,0.106-0.384,0.318-0.384
		h1.323c0.212,0,0.318,0.128,0.318,0.384v5.146C99.706,263.784,99.6,263.912,99.388,263.912z"/>
	<path class="st0" d="M118.249,258.127c0.081,0.086,0.122,0.188,0.122,0.304c0,0.117-0.037,0.277-0.11,0.479
		c-0.073,0.203-0.196,0.469-0.367,0.799c-0.172,0.331-0.478,0.783-0.919,1.358c-0.44,0.575-0.923,1.071-1.445,1.486
		c-0.522,0.416-1.212,0.783-2.069,1.103s-1.776,0.479-2.756,0.479c-2.385,0-4.372-1.087-5.964-3.26
		c-1.593-2.174-2.389-5.022-2.389-8.55c0-3.526,0.804-6.333,2.413-8.422c1.607-2.088,3.547-3.132,5.817-3.132
		c2.53,0,4.368,1.141,5.511,3.42l-0.024-2.845c-0.033-0.256,0.065-0.383,0.294-0.383h1.372c0.212,0,0.318,0.127,0.318,0.383v6.968
		c0,0.277-0.106,0.415-0.318,0.415h-1.543c-0.196,0-0.294-0.138-0.294-0.415v-0.288c0-0.979-0.511-1.997-1.531-3.052
		s-2.29-1.582-3.809-1.582c-1.52,0-2.887,0.783-4.104,2.349c-1.217,1.566-1.824,3.782-1.824,6.648c0,2.865,0.612,5.093,1.837,6.68
		s2.661,2.381,4.311,2.381c1.78,0,3.185-0.521,4.214-1.566c0.8-0.81,1.388-1.63,1.763-2.461c0.131-0.319,0.286-0.383,0.466-0.191
		L118.249,258.127z"/>
	<path class="st0" d="M138.311,263.912h-5.903c-0.196,0-0.294-0.128-0.294-0.384v-1.63c0-0.256,0.098-0.384,0.294-0.384h1.886v-7.83
		h-9.112v7.83h1.887c0.212,0,0.318,0.128,0.318,0.384v1.63c0,0.256-0.106,0.384-0.318,0.384h-5.879
		c-0.212,0-0.318-0.128-0.318-0.384v-1.63c0-0.256,0.106-0.384,0.318-0.384h1.861v-18.153h-1.861c-0.212,0-0.318-0.128-0.318-0.384
		v-1.63c0-0.256,0.106-0.383,0.318-0.383h5.879c0.212,0,0.318,0.127,0.318,0.383v1.63c0,0.256-0.106,0.384-0.318,0.384h-1.887v7.99
		h9.112v-7.99h-1.886c-0.196,0-0.294-0.128-0.294-0.384v-1.63c0-0.256,0.098-0.383,0.294-0.383h5.903
		c0.195,0,0.294,0.127,0.294,0.383v1.63c0,0.256-0.099,0.384-0.294,0.384h-1.887v18.153h1.887c0.195,0,0.294,0.128,0.294,0.384v1.63
		C138.604,263.784,138.506,263.912,138.311,263.912z"/>
	<path class="st0" d="M162.688,263.912h-1.984c-0.343,0-0.734-0.394-1.176-1.183l-0.515-0.959c-1.159,1.577-2.649,2.365-4.47,2.365
		c-1.821,0-3.229-0.655-4.226-1.966c-0.996-1.31-1.494-2.807-1.494-4.49c0-1.981,0.515-3.536,1.543-4.666
		c0.8-0.874,1.682-1.566,2.646-2.077c-1.11-1.684-1.665-3.335-1.665-4.954s0.388-2.893,1.163-3.819s1.735-1.391,2.878-1.391
		s2.11,0.427,2.902,1.278c0.792,0.853,1.188,2.046,1.188,3.58s-0.339,2.748-1.017,3.644c-0.678,0.895-1.588,1.715-2.731,2.461
		l3.258,6.04c0.425-1.129,0.637-2.727,0.637-4.794c0-0.256,0.106-0.384,0.319-0.384h3.232c0.196,0,0.294,0.128,0.294,0.384v1.183
		c0,0.256-0.098,0.384-0.294,0.384h-1.813c-0.065,1.917-0.465,3.707-1.2,5.369l0.98,1.79h1.543c0.212,0,0.318,0.128,0.318,0.384
		v1.438C163.007,263.784,162.9,263.912,162.688,263.912z M151.004,257.616c0,1.257,0.352,2.269,1.054,3.036
		c0.702,0.767,1.56,1.15,2.572,1.15c1.404,0,2.514-0.64,3.331-1.918l-3.87-7.063c-1.438,0.811-2.368,1.779-2.793,2.909
		C151.103,256.306,151.004,256.935,151.004,257.616z M157.373,247.42c0.163-0.447,0.245-1.012,0.245-1.693s-0.184-1.295-0.552-1.838
		c-0.367-0.543-0.882-0.814-1.543-0.814s-1.196,0.267-1.604,0.799s-0.612,1.305-0.612,2.316c0,1.013,0.481,2.286,1.445,3.819
		C156.205,249.179,157.079,248.315,157.373,247.42z"/>
	<path class="st0" d="M187.459,263.912h-13.398c-0.212,0-0.318-0.128-0.318-0.384v-1.63c0-0.256,0.106-0.384,0.318-0.384h1.861
		v-18.153h-1.861c-0.212,0-0.318-0.128-0.318-0.384v-1.63c0-0.256,0.106-0.383,0.318-0.383h5.854c0.212,0,0.318,0.139,0.318,0.415
		v1.566c0,0.276-0.106,0.415-0.318,0.415h-1.862v18.153h7.79v-3.132c0-0.256,0.105-0.384,0.318-0.384h1.322
		c0.196,0,0.294,0.128,0.294,0.384v5.114C187.777,263.773,187.671,263.912,187.459,263.912z"/>
	<path class="st0" d="M207.642,263.912h-5.535c-0.196,0-0.294-0.128-0.294-0.384v-1.63c0-0.256,0.098-0.384,0.294-0.384h1.715
		l-1.593-5.528h-6.834l-1.592,5.528h1.715c0.195,0,0.294,0.128,0.294,0.384v1.63c0,0.256-0.099,0.384-0.294,0.384h-5.512
		c-0.196,0-0.294-0.128-0.294-0.384v-1.63c0-0.256,0.098-0.384,0.294-0.384h1.641l5.267-18.153h-1.322
		c-0.213,0-0.318-0.128-0.318-0.384v-1.63c0-0.256,0.105-0.383,0.318-0.383h3.331c0.392,0,0.689,0.106,0.895,0.319
		c0.203,0.213,0.379,0.564,0.526,1.055l5.634,19.176h1.665c0.196,0,0.294,0.128,0.294,0.384v1.63
		C207.936,263.784,207.838,263.912,207.642,263.912z M201.567,253.78l-2.719-9.492h-0.073l-2.744,9.492H201.567z"/>
	<path class="st0" d="M224.642,263.912h-1.322c-0.311,0-0.556-0.08-0.735-0.239c-0.18-0.16-0.351-0.41-0.514-0.752l-7.079-14.445
		l-1.225-2.686h-0.05v15.725h1.887c0.212,0,0.318,0.128,0.318,0.384v1.63c0,0.256-0.106,0.384-0.318,0.384h-5.879
		c-0.212,0-0.318-0.128-0.318-0.384v-1.63c0-0.256,0.106-0.384,0.318-0.384h1.861v-18.153h-1.861c-0.212,0-0.318-0.128-0.318-0.384
		v-1.63c0-0.256,0.106-0.383,0.318-0.383h3.43c0.473,0,0.89,0.362,1.249,1.086l6.98,14.255l1.396,3.1h0.049v-16.044h-1.886
		c-0.196,0-0.294-0.128-0.294-0.384v-1.63c0-0.256,0.098-0.383,0.294-0.383h5.903c0.195,0,0.294,0.127,0.294,0.383v1.63
		c0,0.256-0.099,0.384-0.294,0.384h-1.887v20.167C224.96,263.784,224.854,263.912,224.642,263.912z"/>
	<path class="st0" d="M244.481,263.912h-1.298c-0.213,0-0.319-0.128-0.319-0.384l0.025-2.205c-1.438,1.875-3.353,2.813-5.744,2.813
		c-2.393,0-4.389-1.087-5.989-3.26c-1.601-2.174-2.4-5.028-2.4-8.565c0-2.365,0.404-4.442,1.213-6.232
		c0.808-1.79,1.837-3.121,3.086-3.995c1.249-0.873,2.601-1.311,4.054-1.311c2.499,0,4.295,1.013,5.389,3.036l-0.024-2.461
		c-0.033-0.256,0.065-0.383,0.294-0.383h1.372c0.212,0,0.318,0.127,0.318,0.383v6.584c0,0.256-0.106,0.384-0.318,0.384h-1.543
		c-0.196,0-0.294-0.128-0.294-0.384v-0.384c0-0.937-0.494-1.864-1.482-2.78s-2.25-1.374-3.784-1.374
		c-1.535,0-2.919,0.826-4.152,2.477c-1.232,1.651-1.849,3.857-1.849,6.616c0,2.76,0.62,4.943,1.861,6.552
		c1.24,1.609,2.629,2.413,4.164,2.413s2.747-0.319,3.638-0.959c0.89-0.639,1.555-1.396,1.996-2.27v-2.492h-4.556
		c-0.196,0-0.294-0.139-0.294-0.416v-1.47c0-0.256,0.098-0.384,0.294-0.384h6.344c0.196,0,0.294,0.128,0.294,0.384v9.684
		C244.775,263.784,244.678,263.912,244.481,263.912z"/>
	<path class="st0" d="M260.698,255.603v-12.241h-1.887c-0.195,0-0.294-0.128-0.294-0.384v-1.63c0-0.256,0.099-0.383,0.294-0.383
		h5.903c0.196,0,0.294,0.127,0.294,0.383v1.63c0,0.256-0.098,0.384-0.294,0.384h-1.886v11.953c0,2.877-0.576,5.066-1.727,6.568
		c-1.151,1.502-2.776,2.253-4.875,2.253s-3.728-0.751-4.887-2.253s-1.739-3.691-1.739-6.568v-11.953h-1.861
		c-0.212,0-0.318-0.128-0.318-0.384v-1.63c0-0.256,0.106-0.383,0.318-0.383h5.879c0.212,0,0.318,0.127,0.318,0.383v1.63
		c0,0.256-0.106,0.384-0.318,0.384h-1.887v12.049c0,4.092,1.503,6.137,4.508,6.137c1.534,0,2.661-0.527,3.38-1.582
		S260.698,257.456,260.698,255.603z"/>
	<path class="st0" d="M282.89,263.912h-5.535c-0.196,0-0.294-0.128-0.294-0.384v-1.63c0-0.256,0.098-0.384,0.294-0.384h1.715
		l-1.593-5.528h-6.834l-1.592,5.528h1.715c0.195,0,0.294,0.128,0.294,0.384v1.63c0,0.256-0.099,0.384-0.294,0.384h-5.512
		c-0.196,0-0.294-0.128-0.294-0.384v-1.63c0-0.256,0.098-0.384,0.294-0.384h1.641l5.267-18.153h-1.322
		c-0.213,0-0.318-0.128-0.318-0.384v-1.63c0-0.256,0.105-0.383,0.318-0.383h3.331c0.392,0,0.689,0.106,0.895,0.319
		c0.203,0.213,0.379,0.564,0.526,1.055l5.634,19.176h1.665c0.196,0,0.294,0.128,0.294,0.384v1.63
		C283.184,263.784,283.086,263.912,282.89,263.912z M276.815,253.78l-2.719-9.492h-0.073l-2.744,9.492H276.815z"/>
	<path class="st0" d="M299.815,263.912h-1.298c-0.213,0-0.319-0.128-0.319-0.384l0.025-2.205c-1.438,1.875-3.353,2.813-5.744,2.813
		c-2.393,0-4.389-1.087-5.989-3.26c-1.601-2.174-2.4-5.028-2.4-8.565c0-2.365,0.404-4.442,1.213-6.232
		c0.808-1.79,1.837-3.121,3.086-3.995c1.249-0.873,2.601-1.311,4.054-1.311c2.499,0,4.295,1.013,5.389,3.036l-0.024-2.461
		c-0.033-0.256,0.065-0.383,0.294-0.383h1.372c0.212,0,0.318,0.127,0.318,0.383v6.584c0,0.256-0.106,0.384-0.318,0.384h-1.543
		c-0.196,0-0.294-0.128-0.294-0.384v-0.384c0-0.937-0.494-1.864-1.482-2.78s-2.25-1.374-3.784-1.374
		c-1.535,0-2.919,0.826-4.152,2.477c-1.232,1.651-1.849,3.857-1.849,6.616c0,2.76,0.62,4.943,1.861,6.552
		c1.24,1.609,2.629,2.413,4.164,2.413s2.747-0.319,3.638-0.959c0.89-0.639,1.555-1.396,1.996-2.27v-2.492h-4.556
		c-0.196,0-0.294-0.139-0.294-0.416v-1.47c0-0.256,0.098-0.384,0.294-0.384h6.344c0.196,0,0.294,0.128,0.294,0.384v9.684
		C300.109,263.784,300.012,263.912,299.815,263.912z"/>
	<path class="st0" d="M316.496,263.912h-13.007c-0.212,0-0.318-0.128-0.318-0.384v-1.63c0-0.256,0.106-0.384,0.318-0.384h1.861
		v-18.153h-1.861c-0.212,0-0.318-0.128-0.318-0.384v-1.63c0-0.256,0.106-0.383,0.318-0.383h13.007c0.212,0,0.318,0.127,0.318,0.383
		v5.146c0,0.277-0.106,0.416-0.318,0.416h-1.323c-0.195,0-0.294-0.139-0.294-0.416v-3.132h-7.397v7.927h6.197
		c0.212,0,0.318,0.127,0.318,0.383v1.63c0,0.256-0.106,0.384-0.318,0.384h-6.197v7.83h7.373v-3.132c0-0.256,0.106-0.384,0.318-0.384
		h1.323c0.212,0,0.318,0.128,0.318,0.384v5.146C316.814,263.784,316.708,263.912,316.496,263.912z"/>
	<path class="st0" d="M341.543,263.912h-6.394c-0.212,0-0.318-0.128-0.318-0.384v-1.63c0-0.256,0.106-0.384,0.318-0.384h1.861
		v-18.153h-1.861c-0.212,0-0.318-0.128-0.318-0.384v-1.63c0-0.256,0.106-0.383,0.318-0.383h7.544c1.731,0,3.148,0.654,4.25,1.965
		c1.103,1.311,1.653,3.079,1.653,5.306s-0.538,3.953-1.616,5.178c-1.078,1.226-2.597,1.838-4.556,1.838h-3.283v6.264h2.401
		c0.195,0,0.294,0.128,0.294,0.384v1.63C341.837,263.784,341.738,263.912,341.543,263.912z M339.142,252.981h3.185
		c2.743,0,4.115-1.576,4.115-4.73c0-1.64-0.388-2.865-1.163-3.675c-0.776-0.81-1.752-1.215-2.928-1.215h-3.209V252.981z"/>
	<path class="st0" d="M365.646,263.912h-5.535c-0.196,0-0.294-0.128-0.294-0.384v-1.63c0-0.256,0.098-0.384,0.294-0.384h1.715
		l-1.593-5.528h-6.834l-1.592,5.528h1.715c0.195,0,0.294,0.128,0.294,0.384v1.63c0,0.256-0.099,0.384-0.294,0.384h-5.512
		c-0.196,0-0.294-0.128-0.294-0.384v-1.63c0-0.256,0.098-0.384,0.294-0.384h1.641l5.267-18.153h-1.322
		c-0.213,0-0.318-0.128-0.318-0.384v-1.63c0-0.256,0.105-0.383,0.318-0.383h3.331c0.392,0,0.689,0.106,0.895,0.319
		c0.203,0.213,0.379,0.564,0.526,1.055l5.634,19.176h1.665c0.196,0,0.294,0.128,0.294,0.384v1.63
		C365.939,263.784,365.842,263.912,365.646,263.912z M359.571,253.78l-2.719-9.492h-0.073l-2.744,9.492H359.571z"/>
	<path class="st0" d="M375.1,263.912h-5.707c-0.212,0-0.318-0.139-0.318-0.415v-1.566c0-0.276,0.106-0.416,0.318-0.416h1.861
		v-18.153h-4.629v3.388c0,0.299-0.114,0.447-0.343,0.447h-1.372c-0.229,0-0.343-0.148-0.343-0.447v-5.369
		c0-0.276,0.114-0.415,0.343-0.415h14.771c0.229,0,0.343,0.139,0.343,0.415v5.369c0,0.299-0.114,0.447-0.343,0.447h-1.396
		c-0.212,0-0.318-0.148-0.318-0.447v-3.388h-4.58v18.153h1.714c0.229,0,0.344,0.14,0.344,0.416v1.566
		C375.443,263.773,375.328,263.912,375.1,263.912z"/>
	<path class="st0" d="M400.257,263.912h-5.903c-0.196,0-0.294-0.128-0.294-0.384v-1.63c0-0.256,0.098-0.384,0.294-0.384h1.886v-7.83
		h-9.112v7.83h1.887c0.212,0,0.318,0.128,0.318,0.384v1.63c0,0.256-0.106,0.384-0.318,0.384h-5.879
		c-0.212,0-0.318-0.128-0.318-0.384v-1.63c0-0.256,0.106-0.384,0.318-0.384h1.861v-18.153h-1.861c-0.212,0-0.318-0.128-0.318-0.384
		v-1.63c0-0.256,0.106-0.383,0.318-0.383h5.879c0.212,0,0.318,0.127,0.318,0.383v1.63c0,0.256-0.106,0.384-0.318,0.384h-1.887v7.99
		h9.112v-7.99h-1.886c-0.196,0-0.294-0.128-0.294-0.384v-1.63c0-0.256,0.098-0.383,0.294-0.383h5.903
		c0.195,0,0.294,0.127,0.294,0.383v1.63c0,0.256-0.099,0.384-0.294,0.384h-1.887v18.153h1.887c0.195,0,0.294,0.128,0.294,0.384v1.63
		C400.551,263.784,400.452,263.912,400.257,263.912z"/>
	<path class="st0" d="M419.753,252.326c0,3.506-0.804,6.35-2.412,8.534c-1.608,2.184-3.634,3.275-6.075,3.275
		s-4.479-1.103-6.111-3.308s-2.449-5.05-2.449-8.534c0-3.483,0.841-6.274,2.522-8.373c1.683-2.099,3.69-3.148,6.026-3.148
		c2.335,0,4.335,1.05,6.001,3.148S419.753,248.821,419.753,252.326z M406.882,259.102c1.249,1.631,2.706,2.445,4.372,2.445
		c1.665,0,3.118-0.814,4.359-2.445c1.241-1.63,1.862-3.867,1.862-6.711c0-2.845-0.634-5.071-1.898-6.68
		c-1.266-1.609-2.707-2.413-4.323-2.413c-1.617,0-3.063,0.804-4.336,2.413c-1.273,1.608-1.91,3.835-1.91,6.68
		C405.008,255.234,405.632,257.472,406.882,259.102z"/>
	<path class="st0" d="M435.308,263.912h-13.398c-0.212,0-0.318-0.128-0.318-0.384v-1.63c0-0.256,0.106-0.384,0.318-0.384h1.861
		v-18.153h-1.861c-0.212,0-0.318-0.128-0.318-0.384v-1.63c0-0.256,0.106-0.383,0.318-0.383h5.854c0.212,0,0.318,0.139,0.318,0.415
		v1.566c0,0.276-0.106,0.415-0.318,0.415h-1.862v18.153h7.79v-3.132c0-0.256,0.105-0.384,0.318-0.384h1.322
		c0.196,0,0.294,0.128,0.294,0.384v5.114C435.626,263.773,435.52,263.912,435.308,263.912z"/>
	<path class="st0" d="M454.29,252.326c0,3.506-0.804,6.35-2.412,8.534c-1.608,2.184-3.634,3.275-6.075,3.275
		s-4.479-1.103-6.111-3.308s-2.449-5.05-2.449-8.534c0-3.483,0.841-6.274,2.522-8.373c1.683-2.099,3.69-3.148,6.026-3.148
		c2.335,0,4.335,1.05,6.001,3.148S454.29,248.821,454.29,252.326z M441.419,259.102c1.249,1.631,2.706,2.445,4.372,2.445
		c1.665,0,3.118-0.814,4.359-2.445c1.241-1.63,1.862-3.867,1.862-6.711c0-2.845-0.634-5.071-1.898-6.68
		c-1.266-1.609-2.707-2.413-4.323-2.413c-1.617,0-3.063,0.804-4.336,2.413c-1.273,1.608-1.91,3.835-1.91,6.68
		C439.545,255.234,440.169,257.472,441.419,259.102z"/>
	<path class="st0" d="M473.054,263.912h-1.298c-0.213,0-0.319-0.128-0.319-0.384l0.025-2.205c-1.438,1.875-3.353,2.813-5.744,2.813
		c-2.393,0-4.389-1.087-5.989-3.26c-1.601-2.174-2.4-5.028-2.4-8.565c0-2.365,0.404-4.442,1.213-6.232
		c0.808-1.79,1.837-3.121,3.086-3.995c1.249-0.873,2.601-1.311,4.054-1.311c2.499,0,4.295,1.013,5.389,3.036l-0.024-2.461
		c-0.033-0.256,0.065-0.383,0.294-0.383h1.372c0.212,0,0.318,0.127,0.318,0.383v6.584c0,0.256-0.106,0.384-0.318,0.384h-1.543
		c-0.196,0-0.294-0.128-0.294-0.384v-0.384c0-0.937-0.494-1.864-1.482-2.78s-2.25-1.374-3.784-1.374
		c-1.535,0-2.919,0.826-4.152,2.477c-1.232,1.651-1.849,3.857-1.849,6.616c0,2.76,0.62,4.943,1.861,6.552
		c1.24,1.609,2.629,2.413,4.164,2.413s2.747-0.319,3.638-0.959c0.89-0.639,1.555-1.396,1.996-2.27v-2.492h-4.556
		c-0.196,0-0.294-0.139-0.294-0.416v-1.47c0-0.256,0.098-0.384,0.294-0.384h6.344c0.196,0,0.294,0.128,0.294,0.384v9.684
		C473.348,263.784,473.25,263.912,473.054,263.912z"/>
	<path class="st0" d="M482.606,263.912h-5.879c-0.212,0-0.318-0.128-0.318-0.384v-1.63c0-0.256,0.106-0.384,0.318-0.384h1.861
		v-18.153h-1.861c-0.212,0-0.318-0.128-0.318-0.384v-1.63c0-0.256,0.106-0.383,0.318-0.383h5.879c0.212,0,0.318,0.127,0.318,0.383
		v1.63c0,0.256-0.106,0.384-0.318,0.384h-1.887v18.153h1.887c0.212,0,0.318,0.128,0.318,0.384v1.63
		C482.925,263.784,482.818,263.912,482.606,263.912z"/>
	<path class="st0" d="M487.579,263.912h-1.372c-0.212,0-0.318-0.128-0.318-0.384v-7.479c0-0.276,0.106-0.415,0.318-0.415h1.543
		c0.196,0,0.294,0.139,0.294,0.415v0.671c0,0.405,0.188,0.943,0.563,1.614s0.751,1.22,1.127,1.646
		c0.375,0.427,0.878,0.795,1.506,1.104c0.629,0.309,1.311,0.463,2.046,0.463c1.257,0,2.241-0.341,2.951-1.022
		c0.711-0.682,1.065-1.63,1.065-2.845c0-0.703-0.2-1.305-0.6-1.806c-0.4-0.5-0.919-0.9-1.556-1.198
		c-0.637-0.299-1.343-0.575-2.118-0.831c-0.776-0.256-1.552-0.549-2.327-0.879c-0.776-0.33-1.482-0.725-2.119-1.183
		s-1.155-1.098-1.556-1.918s-0.6-1.784-0.6-2.893c0-1.789,0.518-3.271,1.556-4.442c1.036-1.172,2.429-1.758,4.176-1.758
		c2.205,0,3.821,0.842,4.85,2.525l-0.049-1.981c0-0.256,0.106-0.384,0.318-0.384h1.372c0.196,0,0.294,0.128,0.294,0.384v6.967
		c0,0.256-0.098,0.384-0.294,0.384h-1.543c-0.196,0-0.294-0.128-0.294-0.384v-0.895c0-0.874-0.376-1.758-1.127-2.653
		c-0.751-0.895-1.854-1.342-3.307-1.342c-1.078,0-1.947,0.335-2.608,1.007c-0.662,0.671-0.992,1.529-0.992,2.572
		c0,0.746,0.204,1.386,0.612,1.918c0.408,0.533,0.938,0.959,1.592,1.278s1.372,0.613,2.155,0.879
		c0.784,0.267,1.568,0.56,2.352,0.879c0.784,0.319,1.503,0.703,2.156,1.15c0.652,0.447,1.184,1.061,1.592,1.838
		c0.408,0.778,0.612,1.699,0.612,2.765c0,1.875-0.515,3.42-1.543,4.635c-1.029,1.214-2.564,1.821-4.605,1.821
		c-1.502,0-2.743-0.394-3.723-1.183c-0.98-0.788-1.69-1.641-2.131-2.557l0.024,3.132
		C487.873,263.784,487.774,263.912,487.579,263.912z"/>
	<path class="st0" d="M513.078,263.912h-5.707c-0.212,0-0.318-0.139-0.318-0.415v-1.566c0-0.276,0.106-0.416,0.318-0.416h1.861
		v-18.153h-4.629v3.388c0,0.299-0.114,0.447-0.343,0.447h-1.372c-0.229,0-0.343-0.148-0.343-0.447v-5.369
		c0-0.276,0.114-0.415,0.343-0.415h14.771c0.229,0,0.343,0.139,0.343,0.415v5.369c0,0.299-0.114,0.447-0.343,0.447h-1.396
		c-0.212,0-0.318-0.148-0.318-0.447v-3.388h-4.58v18.153h1.714c0.229,0,0.344,0.14,0.344,0.416v1.566
		C513.422,263.773,513.307,263.912,513.078,263.912z"/>
</g>
<rect x="37.195" y="217.657" class="st1" width="481.218" height="4.193"/>
</svg>
